PathFileType	4	(X/Y/Z)	Walk2.trc
DataRate	CameraRate	NumFrames	NumMarkers	Units	OrigDataRate	OrigDataStartFrame	OrigNumFrames
200.000000	200.000000	4	56	mm	200.000000	457	568
Frame#	Times		RASI		RACR1		RUA1		RFA1		RTH2		C7		LFA1		RTH3		RElbow		LElbowM		RCAR		RTH4		RLFC		RTB3		RMT1		RTB1		RWRU		RMT5		LACR1		RTH1		RTB4		RTB2		LTH3		LElbow		RMMAL		LWRU		RWRR		LPSI		CLAV		LTB1		T10		LBHD		RPSI		LTB4		LTB3		LLFC		LTH2		LTH4		LTB2		RBHD		LWRR		LTH1		LFHD		LMT1		RBack		LMMAL		LCAL		LLMAL		RLMAL		RToe		LMT5		RElbowM		LToe		LUA1		LCAR		RCAL
			X1	Y1	Z1	X2	Y2	Z2	X3	Y3	Z3	X4	Y4	Z4	X5	Y5	Z5	X6	Y6	Z6	X7	Y7	Z7	X8	Y8	Z8	X9	Y9	Z9	X10	Y10	Z10	X11	Y11	Z11	X12	Y12	Z12	X13	Y13	Z13	X14	Y14	Z14	X15	Y15	Z15	X16	Y16	Z16	X17	Y17	Z17	X18	Y18	Z18	X19	Y19	Z19	X20	Y20	Z20	X21	Y21	Z21	X22	Y22	Z22	X23	Y23	Z23	X24	Y24	Z24	X25	Y25	Z25	X26	Y26	Z26	X27	Y27	Z27	X28	Y28	Z28	X29	Y29	Z29	X30	Y30	Z30	X31	Y31	Z31	X32	Y32	Z32	X33	Y33	Z33	X34	Y34	Z34	X35	Y35	Z35	X36	Y36	Z36	X37	Y37	Z37	X38	Y38	Z38	X39	Y39	Z39	X40	Y40	Z40	X41	Y41	Z41	X42	Y42	Z42	X43	Y43	Z43	X44	Y44	Z44	X45	Y45	Z45	X46	Y46	Z46	X47	Y47	Z47	X48	Y48	Z48	X49	Y49	Z49	X50	Y50	Z50	X51	Y51	Z51	X52	Y52	Z52	X53	Y53	Z53	X54	Y54	Z54	X55	Y55	Z55	X56	Y56	Z56

457	2.285	726.51	930.76	411.76	702.14	1387.5	432.12	618.29	1207.7	508.93	547.38	949.08	556.1	814.24	679.32	427.18	641.86	1436	280.77	730.38	992.24	-39.564	795.47	562.51	444.2	544.12	1095.6	528.14	589.5	1098	63.098	533.75	760.45	559.13	755.73	647.65	459.96	833.63	473.05	426.86	939.89	212.91	356.56	1069	81.577	323.72	896.18	398.23	348.86	505.01	823.07	549.48	1042	74.387	404.06	682.48	1424.3	107.13	714.95	733.06	466.76	919.42	308.28	354.82	903.54	304.55	425.35	620.25	559.58	101.59	613.06	1103.8	-13.737	935	117.16	313.04	744.32	873.41	-31.387	575.27	804.86	518.75	547.88	957.61	209.58	775.44	1352.8	269.18	591.57	350.18	183.81	539.91	1128.3	263.77	664.44	1568.3	213.16	544.91	954.96	314.43	553.45	265.49	194.95	519.64	180.06	204.97	578.72	445.41	120.33	704.17	636.65	127.74	639.11	646.15	86.056	527.8	268.96	127.79	674.91	1571.7	352.57	809.19	908.97	3.9467	660.71	741.26	76.318	847.95	1596.6	224.07	578.8	34.489	255.33	565.72	1349.4	369.87	453.26	94.89	271.1	366.37	43.304	233.02	420.37	79.34	184.84	910.46	96.717	398.22	1109.5	104.42	351.38	547.26	30.055	165.33	525.22	1076.3	434.43	628.05	24.35	239.8	644.88	1232.6	6.43	826.28	858.98	-44.128	878.68	36.859	357.13
458	2.29	733.35	929.53	412.07	708.9	1386.1	432.71	624.25	1206.6	509.17	551.94	947.98	555.86	820.1	677.46	426.77	648.47	1434.7	281.23	738.77	992.16	-39.192	800.9	560.51	443.92	549.42	1094.4	527.94	596.86	1097.4	63.004	537.03	759.49	558.98	761.51	646.32	459.75	840.66	472.23	426.62	951.8	214.01	356.85	1083.4	84.922	323.37	904.11	398.25	348.58	508.88	822.37	549.26	1057.1	77.075	404.11	689.53	1423.3	107.68	721.12	731.42	466.72	929.15	308.9	354.89	914.22	305.34	425.51	624.51	558.97	101.71	620.63	1103	-13.757	948.39	118.07	313.8	753.45	873.66	-30.903	579.05	803.89	518.21	554.38	956.48	210.38	782.3	1351.6	269.69	594.19	349.52	184.05	546.63	1127.4	264.08	670.99	1567	214.28	551.93	953.75	315.18	555.49	265.2	195.16	521.09	179.97	205.1	582.28	445.03	120.49	709.12	635.44	127.89	644.27	645.31	86.272	529.76	268.86	128.03	681.33	1570.3	353.61	818.14	909.68	4.5483	666.16	740.25	76.826	854.42	1595.7	224.92	578.83	34.408	255.59	572.34	1348	370.09	453.83	95.475	271.21	366.57	44.451	232.81	420.77	80.287	184.79	924.9	97.595	398.99	1124.1	107.89	350.74	547.24	30.044	165.41	530.84	1075.7	434.12	628.16	24.386	240.04	652.06	1232.1	6.6244	835.63	859.88	-43.42	893.73	37.013	358.25
459	2.295	740.39	928.3	412.38	715.71	1384.6	433.12	630.42	1205.3	509.35	556.75	947.02	555.76	826.08	675.73	426.46	655	1433.7	282.11	747.04	992.24	-38.744	807.04	559.01	443.86	554.99	1093.6	527.92	603.84	1096.7	63.036	540.43	758.6	558.52	767.25	644.12	459.88	848.07	471.76	426.51	963.17	215.08	357.04	1097.1	88.226	323	911.97	398.5	348.48	512.86	821.71	549.01	1071.1	79.35	403.65	696.38	1422.4	108.21	726.97	729.62	466.87	938.67	309.51	354.88	924.25	305.96	425.73	629.06	558.46	102	627.89	1102.1	-13.835	961.19	119.05	314.35	762.58	873.66	-30.143	582.69	802.76	518.06	561	955.02	211.12	788.92	1350.4	270.17	596.78	348.79	184.48	553.13	1126	264.8	677.57	1565.8	215.4	558.29	952.6	315.51	557.75	264.98	195.28	522.15	180.03	205.19	585.84	444.59	120.82	713.9	634.33	128.16	649.15	644.64	86.503	531.73	268.97	128.32	687.71	1568.9	354.37	826.84	910.33	5.3834	671.66	739.24	76.987	860.95	1594.6	225.96	578.88	34.421	255.67	578.76	1346.9	370.58	454.21	95.93	271.28	366.74	45.632	232.65	421.18	81.192	184.76	938.61	98.223	399.67	1137.7	111.38	349.98	547.28	29.958	165.28	536.6	1075	433.77	628.21	24.32	240.15	659.08	1231.2	6.8731	844.98	860.69	-42.664	908.09	36.912	358.82
460	2.3	747.67	927.14	412.55	722.28	1383.3	433.75	636.5	1203.9	509.52	561.66	946.09	555.72	831.88	674.04	426.3	661.67	1432.4	282.77	755.31	992.08	-38.356	813.22	557.43	443.93	560.6	1092.6	528.03	611.03	1096	63.095	544.24	757.72	558.17	773.5	642.48	459.98	855.51	471.43	426.56	973.76	215.8	357.36	1109.7	91.34	322.48	919.99	398.48	348.5	517.09	820.98	549.19	1084.6	81.47	403.23	703.23	1421.5	108.97	733.01	727.92	467.27	948.08	310.08	354.89	933.84	306.44	426.1	633.46	557.93	102.34	635.22	1101.3	-13.788	973.07	119.72	314.83	771.55	873.56	-29.395	586.78	801.48	518.25	567.56	953.57	211.81	795.53	1349.2	271	599.88	348.19	184.67	559.89	1124.7	265.47	683.88	1564.6	216.22	565.17	951.12	316.52	559.79	264.71	195.38	523.5	180.21	205.07	589.59	444.45	121.1	719.08	633.22	128.21	654.04	643.87	86.737	533.93	269.07	128.56	694.17	1567.3	355.2	835.42	910.94	6.181	677.34	738.22	77.514	867.35	1593.6	226.95	578.94	34.426	255.67	585.7	1345.5	371.21	454.58	96.558	271.39	366.96	47.149	232.62	421.72	82.198	184.62	951.45	99.019	400.05	1150.5	114.66	349.05	547.28	29.973	165.36	542.43	1074.2	433.61	628.23	24.235	240.24	666.28	1230.3	7.1968	854.06	861.5	-41.89	921.46	36.912	359.2
